<?xml version="1.0" encoding="utf-8"?>
<!-- Generator: Adobe Illustrator 25.2.0, SVG Export Plug-In . SVG Version: 6.00 Build 0)  -->
<svg version="1.1" id="Layer_1" xmlns="http://www.w3.org/2000/svg" xmlns:xlink="http://www.w3.org/1999/xlink" x="0px" y="0px"
	 viewBox="0 0 389 114" style="enable-background:new 0 0 389 114;" xml:space="preserve">
<style type="text/css">
	.st0{fill:#2D7D7D;}
	.st1{fill:none;}
	.st2{fill:#FFFFFF;}
	.st3{font-family:'Foco-Bold';}
	.st4{font-size:48px;}
	.st5{letter-spacing:-1;}
</style>
<rect class="st0" width="389" height="114"/>
<rect x="-38" y="-118.5" class="st1" width="458" height="367"/>
<text transform="matrix(1 2.094394e-03 -2.094394e-03 1 118.93 57.9254)" class="st2 st3 st4 st5">P</text>
<text transform="matrix(1 2.094394e-03 -2.094394e-03 1 143.79 57.9775)" class="st2 st3 st4">artnerVine</text>
<text transform="matrix(1 7.155789e-03 -7.155789e-03 1 119.12 92.8954)" class="st2 st3 st4">A</text>
<text transform="matrix(1 7.155789e-03 -7.155789e-03 1 149.0192 93.1094)" class="st2 st3 st4">cc</text>
<text transform="matrix(1 7.155789e-03 -7.155789e-03 1 192.8881 93.4233)" class="st2 st3 st4">ess</text>
<path class="st2" d="M54.5,84.8c1-0.5,1.8-1.3,2.3-2.2L76.2,43c0.1-0.2,0.2-0.4,0.2-0.6c0.1-0.4,0.2-0.8,0.2-1.1
	c0-0.5,0-0.9-0.1-1.4c-0.2-0.8-0.6-1.5-1.1-2.1c-0.4-0.5-1-0.8-1.5-1.1c-0.4-0.2-0.8-0.3-1.2-0.3c-0.2,0-0.3,0-0.5,0
	c-9.3-0.1-24.4-0.1-35-0.1h-4.8c-4.5,0-8.7-2.6-10.7-6.7l4,8.1c0.6,1.2,1.5,3.1,2.5,5l0,0c2,4.1,6.2,6.7,10.8,6.7l0,0H57
	c0.3,0,0.7,0.2,0.8,0.5c0.2,0.3,0.2,0.7,0,1l-8.4,17c-0.5,1-1.3,1.8-2.2,2.2c-2.5,1.2-5.5,0.2-6.7-2.2l7.4,14.6
	C49.1,85,52.1,86,54.5,84.8z M96.1,34.8c-2.5-9.9-10.9-17.3-21-18.5c-0.7-0.1-1.3-0.1-2-0.2h-0.8c-12.6-0.1-33.9-0.1-46.7-0.1h-3.4
	c-4.6,0-8.7-2.6-10.7-6.7l4,8.1l2.4,4.8l0,0c2,4.1,6.2,6.7,10.7,6.7l0,0c14.5,0,29,0,43.6,0.1c0.5,0,0.9,0,1.4,0.1
	c2.5,0.3,4.8,1.4,6.6,3.1c0.9,0.9,1.7,1.9,2.4,3c0.6,1.1,1,2.2,1.3,3.4c0.2,1.1,0.3,2.3,0.2,3.4c-0.1,1.1-0.3,2.2-0.7,3.2
	c-0.2,0.4-0.3,0.8-0.5,1.2l-22,44.2C59.5,93,56.5,94,54,92.8c-1-0.5-1.7-1.3-2.2-2.2L59,105c1.2,2.5,4.2,3.5,6.7,2.3
	c1-0.5,1.8-1.3,2.3-2.3l26.4-53c0.1-0.3,0.2-0.4,0.3-0.7c0.3-0.6,0.5-1.2,0.8-1.9c0.7-2,1.2-4.1,1.4-6.2
	C97.1,40.5,96.9,37.6,96.1,34.8L96.1,34.8z"/>
</svg>
